SplineFontDB: 3.0
FontName: Untitled1
FullName: Untitled1
FamilyName: Untitled1
Weight: Regular
Copyright: Copyright (c) 2019, th,,,
UComments: "2019-1-27: Created with FontForge (http://fontforge.org)"
Version: 001.000
ItalicAngle: 0
UnderlinePosition: -100
UnderlineWidth: 50
Ascent: 800
Descent: 200
InvalidEm: 0
LayerCount: 2
Layer: 0 0 "+gMxmbwAA" 1
Layer: 1 0 "+Uk1mbwAA" 0
XUID: [1021 130 2087196376 4155888]
StyleMap: 0x0000
FSType: 0
OS2Version: 0
OS2_WeightWidthSlopeOnly: 0
OS2_UseTypoMetrics: 1
CreationTime: 1548557304
ModificationTime: 1554478295
OS2TypoAscent: 0
OS2TypoAOffset: 1
OS2TypoDescent: 0
OS2TypoDOffset: 1
OS2TypoLinegap: 90
OS2WinAscent: 0
OS2WinAOffset: 1
OS2WinDescent: 0
OS2WinDOffset: 1
HheadAscent: 0
HheadAOffset: 1
HheadDescent: 0
HheadDOffset: 1
DEI: 91125
Encoding: ISO8859-1
UnicodeInterp: none
NameList: AGL For New Fonts
DisplaySize: -48
AntiAlias: 1
FitToEm: 0
WinInfo: 48 16 4
BeginChars: 256 27

StartChar: zero
Encoding: 48 48 0
Width: 1000
VWidth: 0
HStem: -200 93.75<93.75 781.25> 81.25 93.75<318.186 556.955> 112.5 93.75<183.313 345.952 529.226 691.687> 237.5 93.75<353.064 521.936> 706.25 93.75<353.064 521.936>
VStem: 0 93.75<-106.25 21.7898> 156.25 93.75<434.314 603.186> 625 93.75<434.314 603.186> 781.25 93.75<-106.25 21.7898>
LayerCount: 2
Fore
SplineSet
612.5 206.25 m 0xbf80
 757.421875 206.25 875 88.671875 875 -56.25 c 2
 875 -106.25 l 2
 875 -158.0078125 833.0078125 -200 781.25 -200 c 2
 93.75 -200 l 2
 41.9921875 -200 0 -158.0078125 0 -106.25 c 2
 0 -56.25 l 2
 0 88.671875 117.578125 206.25 262.5 206.25 c 0xbf80
 318.75 206.25 345.5078125 175 437.5 175 c 0xdf80
 529.4921875 175 556.4453125 206.25 612.5 206.25 c 0xbf80
781.25 -106.25 m 1
 781.25 -56.25 l 2
 781.25 36.71875 705.46875 112.5 612.5 112.5 c 0xbf80
 583.7890625 112.5 538.4765625 81.25 437.5 81.25 c 0xdf80
 337.3046875 81.25 291.015625 112.5 262.5 112.5 c 0
 169.53125 112.5 93.75 36.71875 93.75 -56.25 c 2
 93.75 -106.25 l 1
 781.25 -106.25 l 1
437.5 237.5 m 0
 282.2265625 237.5 156.25 363.4765625 156.25 518.75 c 0
 156.25 674.0234375 282.2265625 800 437.5 800 c 0
 592.7734375 800 718.75 674.0234375 718.75 518.75 c 0
 718.75 363.4765625 592.7734375 237.5 437.5 237.5 c 0
437.5 706.25 m 0
 334.1796875 706.25 250 622.0703125 250 518.75 c 0
 250 415.4296875 334.1796875 331.25 437.5 331.25 c 0
 540.8203125 331.25 625 415.4296875 625 518.75 c 0
 625 622.0703125 540.8203125 706.25 437.5 706.25 c 0
EndSplineSet
Validated: 1
EndChar

StartChar: one
Encoding: 49 49 1
Width: 1000
VWidth: 0
HStem: -45.5801 125<453.698 996.302>
LayerCount: 2
Back
SplineSet
503.869140625 266.853515625 m 2
 124.29296875 -112.72265625 l 2
 105.986328125 -131.029296875 76.306640625 -131.029296875 58.001953125 -112.72265625 c 2
 13.728515625 -68.451171875 l 2
 -4.546875 -50.17578125 -4.58203125 -20.556640625 13.650390625 -2.23828125 c 2
 314.474609375 300 l 1
 13.65234375 602.236328125 l 2
 -4.580078125 620.5546875 -4.544921875 650.173828125 13.73046875 668.44921875 c 2
 58.001953125 712.720703125 l 2
 76.30859375 731.02734375 105.98828125 731.02734375 124.29296875 712.720703125 c 2
 503.869140625 333.14453125 l 2
 522.17578125 314.83984375 522.17578125 285.16015625 503.869140625 266.853515625 c 2
1250 -90.625 m 2
 1250 -116.513671875 1229.01367188 -137.5 1203.125 -137.5 c 2
 609.375 -137.5 l 2
 583.486328125 -137.5 562.5 -116.513671875 562.5 -90.625 c 2
 562.5 -28.125 l 2
 562.5 -2.236328125 583.486328125 18.75 609.375 18.75 c 2
 1203.125 18.75 l 2
 1229.01367188 18.75 1250 -2.236328125 1250 -28.125 c 2
 1250 -90.625 l 2
EndSplineSet
Fore
SplineSet
403.095703125 277.90234375 m 2
 99.4345703125 -25.7587890625 l 2
 84.7890625 -40.4033203125 61.0458984375 -40.4033203125 46.40234375 -25.7587890625 c 2
 10.9833984375 9.6591796875 l 2
 -3.63671875 24.279296875 -3.6650390625 47.974609375 10.9208984375 62.62890625 c 2
 251.580078125 304.419921875 l 1
 10.921875 546.208984375 l 2
 -3.6640625 560.86328125 -3.6357421875 584.55859375 10.984375 599.178710938 c 2
 46.40234375 634.596679688 l 2
 61.046875 649.241210938 84.791015625 649.241210938 99.4345703125 634.596679688 c 2
 403.095703125 330.935546875 l 2
 417.741210938 316.291992188 417.741210938 292.547851562 403.095703125 277.90234375 c 2
1000 -8.080078125 m 2
 1000 -28.791015625 983.2109375 -45.580078125 962.5 -45.580078125 c 2
 487.5 -45.580078125 l 2
 466.7890625 -45.580078125 450 -28.791015625 450 -8.080078125 c 2
 450 41.919921875 l 2
 450 62.630859375 466.7890625 79.419921875 487.5 79.419921875 c 2
 962.5 79.419921875 l 2
 983.2109375 79.419921875 1000 62.630859375 1000 41.919921875 c 2
 1000 -8.080078125 l 2
EndSplineSet
Validated: 33
EndChar

StartChar: two
Encoding: 50 50 2
Width: 1000
VWidth: 0
HStem: -100 100<150 300 700 850> 100 100<150 187.5 262.5 300 700 737.5 812.5 850> 262.5 75<0.200766 187.5 262.5 462.5 537.5 737.5 812.5 999.799> 400 100<400 462.5 537.5 600> 600 100<400 600>
VStem: 50 100<0 100> 187.5 75<200 262.5> 300 100<0 100 500 600> 462.5 75<337.5 400> 600 100<0 100 500 600> 737.5 75<200 262.5> 850 100<0 100>
LayerCount: 2
Fore
SplineSet
1000 287.5 m 2
 1000 273.6875 988.8125 262.5 975 262.5 c 2
 812.5 262.5 l 1
 812.5 200 l 1
 900 200 l 2
 927.609375 200 950 177.609375 950 150 c 2
 950 -50 l 2
 950 -77.609375 927.609375 -100 900 -100 c 2
 650 -100 l 2
 622.390625 -100 600 -77.609375 600 -50 c 2
 600 150 l 2
 600 177.609375 622.390625 200 650 200 c 2
 737.5 200 l 1
 737.5 262.5 l 1
 262.5 262.5 l 1
 262.5 200 l 1
 350 200 l 2
 377.609375 200 400 177.609375 400 150 c 2
 400 -50 l 2
 400 -77.609375 377.609375 -100 350 -100 c 2
 100 -100 l 2
 72.390625 -100 50 -77.609375 50 -50 c 2
 50 150 l 2
 50 177.609375 72.390625 200 100 200 c 2
 187.5 200 l 1
 187.5 262.5 l 1
 25 262.5 l 2
 11.1875 262.5 0 273.6875 0 287.5 c 2
 0 312.5 l 2
 0 326.3125 11.1875 337.5 25 337.5 c 2
 462.5 337.5 l 1
 462.5 400 l 1
 350 400 l 2
 322.390625 400 300 422.390625 300 450 c 2
 300 650 l 2
 300 677.609375 322.390625 700 350 700 c 2
 650 700 l 2
 677.609375 700 700 677.609375 700 650 c 2
 700 450 l 2
 700 422.390625 677.609375 400 650 400 c 2
 537.5 400 l 1
 537.5 337.5 l 1
 975 337.5 l 2
 988.8125 337.5 1000 326.3125 1000 312.5 c 2
 1000 287.5 l 2
400 500 m 1
 600 500 l 1
 600 600 l 1
 400 600 l 1
 400 500 l 1
300 0 m 1
 300 100 l 1
 150 100 l 1
 150 0 l 1
 300 0 l 1
850 0 m 1
 850 100 l 1
 700 100 l 1
 700 0 l 1
 850 0 l 1
EndSplineSet
Validated: 1
EndChar

StartChar: three
Encoding: 51 51 3
Width: 1000
VWidth: 0
HStem: -116.667 21G<384.583 614.792> 133.333 83.334<211.667 318.333 420.417 579.583 681.667 788.333> 383.333 83.334<211.667 318.333 420.417 579.583 681.667 788.333>
VStem: 83.333 83.334<222.096 377.904> 312.5 83.333<216.667 383.333> 604.167 83.333<216.667 383.333> 833.333 83.334<222.096 377.904>
LayerCount: 2
Fore
SplineSet
499.583007812 716.666992188 m 0
 730 716.666992188 916.666992188 530 916.666992188 300 c 0
 916.666992188 70 730 -116.666992188 499.583007812 -116.666992188 c 0
 269.583007812 -116.666992188 83.3330078125 70 83.3330078125 300 c 0
 83.3330078125 530 269.583007812 716.666992188 499.583007812 716.666992188 c 0
788.333007812 466.666992188 m 2
 748.333007812 535.416992188 684.583007812 588.75 607.916992188 615 c 1
 632.916992188 568.75 652.083007812 518.75 665.416992188 466.666992188 c 2
 788.333007812 466.666992188 l 2
500 631.666992188 m 1
 465.416992188 581.666992188 438.333007812 526.25 420.416992188 466.666992188 c 2
 579.583007812 466.666992188 l 2
 561.666992188 526.25 534.583007812 581.666992188 500 631.666992188 c 1
177.5 216.666992188 m 2
 318.333007812 216.666992188 l 2
 315 244.166992188 312.5 271.666992188 312.5 300 c 0
 312.5 328.333007812 315 355.833007812 318.333007812 383.333007812 c 2
 177.5 383.333007812 l 2
 170.833007812 356.666992188 166.666992188 328.75 166.666992188 300 c 0
 166.666992188 271.25 170.833007812 243.333007812 177.5 216.666992188 c 2
211.666992188 133.333007812 m 2
 251.666992188 64.1669921875 315.416992188 11.25 392.083007812 -15 c 1
 367.083007812 31.25 347.916992188 81.25 334.583007812 133.333007812 c 2
 211.666992188 133.333007812 l 2
334.583007812 466.666992188 m 2
 347.916992188 518.75 367.083007812 568.75 392.083007812 615 c 1
 315.416992188 588.75 251.666992188 535.833007812 211.666992188 466.666992188 c 2
 334.583007812 466.666992188 l 2
500 -31.6669921875 m 1
 534.583007812 18.3330078125 561.666992188 73.75 579.583007812 133.333007812 c 2
 420.416992188 133.333007812 l 2
 438.333007812 73.75 465.416992188 18.3330078125 500 -31.6669921875 c 1
597.5 216.666992188 m 2
 601.25 244.166992188 604.166992188 271.666992188 604.166992188 300 c 0
 604.166992188 328.333007812 601.25 356.25 597.5 383.333007812 c 2
 402.5 383.333007812 l 2
 398.75 356.25 395.833007812 328.333007812 395.833007812 300 c 0
 395.833007812 271.666992188 398.75 244.166992188 402.5 216.666992188 c 2
 597.5 216.666992188 l 2
607.916992188 -15 m 1
 684.583007812 11.25 748.333007812 64.5830078125 788.333007812 133.333007812 c 2
 665.416992188 133.333007812 l 2
 652.083007812 81.25 632.916992188 31.25 607.916992188 -15 c 1
681.666992188 216.666992188 m 2
 822.5 216.666992188 l 2
 829.166992188 243.333007812 833.333007812 271.25 833.333007812 300 c 0
 833.333007812 328.75 829.166992188 356.666992188 822.5 383.333007812 c 2
 681.666992188 383.333007812 l 2
 685 355.833007812 687.5 328.333007812 687.5 300 c 0
 687.5 271.666992188 685 244.166992188 681.666992188 216.666992188 c 2
EndSplineSet
Validated: 1
EndChar

StartChar: four
Encoding: 52 52 4
Width: 1000
VWidth: 0
HStem: -50 200<438.258 561.74>
VStem: 399.999 200<-11.7412 111.741>
LayerCount: 2
Fore
SplineSet
992.045898438 458 m 0
 1002.45214844 448.375 1002.65527344 432.078125 992.608398438 422.09375 c 2
 939.108398438 369.015625 l 2
 929.514648438 359.5 914.077148438 359.28125 904.108398438 368.421875 c 0
 676.061523438 577.34375 323.905273438 577.296875 95.9052734375 368.421875 c 0
 85.9365234375 359.28125 70.4990234375 359.484375 60.9052734375 369.015625 c 2
 7.4052734375 422.09375 l 2
 -2.6572265625 432.078125 -2.4541015625 448.375 7.9521484375 458 c 0
 284.670898438 713.953125 715.217773438 714.046875 992.045898438 458 c 0
499.999023438 150 m 0
 555.233398438 150 599.999023438 105.234375 599.999023438 50 c 0
 599.999023438 -5.234375 555.233398438 -50 499.999023438 -50 c 0
 444.764648438 -50 399.999023438 -5.234375 399.999023438 50 c 0
 399.999023438 105.234375 444.764648438 150 499.999023438 150 c 0
816.670898438 280.609375 m 0
 827.436523438 271.09375 827.795898438 254.53125 817.545898438 244.4375 c 2
 763.733398438 191.328125 l 2
 754.358398438 182.0625 739.264648438 181.453125 729.280273438 190.078125 c 0
 598.420898438 303.21875 401.874023438 303.46875 270.702148438 190.078125 c 0
 260.717773438 181.453125 245.624023438 182.078125 236.249023438 191.328125 c 2
 182.436523438 244.4375 l 2
 172.202148438 254.53125 172.545898438 271.078125 183.327148438 280.609375 c 0
 363.217773438 439.703125 636.577148438 439.875 816.670898438 280.609375 c 0
EndSplineSet
Validated: 33
EndChar

StartChar: five
Encoding: 53 53 5
Width: 1000
VWidth: 0
LayerCount: 2
Fore
SplineSet
791.666992188 532.916992188 m 1
 558.75 300 l 1
 791.666992188 67.0830078125 l 1
 732.916992188 8.3330078125 l 1
 500 241.25 l 1
 267.083007812 8.3330078125 l 1
 208.333007812 67.0830078125 l 1
 441.25 300 l 1
 208.333007812 532.916992188 l 1
 267.083007812 591.666992188 l 1
 500 358.75 l 1
 732.916992188 591.666992188 l 1
 791.666992188 532.916992188 l 1
EndSplineSet
Validated: 1
EndChar

StartChar: six
Encoding: 54 54 6
Width: 1000
VWidth: 0
VStem: 125.003 218.747<227.31 372.689> 375 249.998<-173.284 -44.679 644.679 773.284> 656.25 218.747<227.31 372.69>
LayerCount: 2
Fore
SplineSet
868.7265625 231.4453125 m 1
 951.9609375 183.400390625 l 2
 961.466796875 177.9140625 965.87890625 166.568359375 962.623046875 156.0859375 c 0
 941.001953125 86.47265625 904.087890625 23.58203125 855.80859375 -28.65234375 c 0
 851.961914062 -32.81640625 844.23828125 -36.1962890625 838.569335938 -36.1962890625 c 0
 835.099609375 -36.1962890625 829.844726562 -34.7890625 826.83984375 -33.0546875 c 2
 743.66796875 14.982421875 l 1
 714.443359375 -10.0576171875 661.279296875 -40.7958984375 624.998046875 -53.630859375 c 1
 624.998046875 -149.689453125 l 2
 624.998046875 -160.051757812 616.79296875 -170.3046875 606.68359375 -172.576171875 c 0
 538.41015625 -187.908203125 465.083984375 -188.701171875 393.365234375 -172.58984375 c 0
 382.642578125 -170.181640625 375 -160.68359375 375 -149.693359375 c 2
 375 -53.630859375 l 1
 338.717773438 -40.796875 285.553710938 -10.05859375 256.330078125 14.982421875 c 1
 173.158203125 -33.0546875 l 2
 170.153320312 -34.7890625 164.8984375 -36.1962890625 161.428710938 -36.1962890625 c 0
 155.759765625 -36.1962890625 148.036132812 -32.81640625 144.189453125 -28.65234375 c 0
 95.912109375 23.58203125 58.99609375 86.47265625 37.375 156.0859375 c 0
 34.119140625 166.56640625 38.53125 177.912109375 48.037109375 183.400390625 c 2
 131.2734375 231.4453125 l 1
 127.8125 250.208007812 125.002929688 280.919921875 125.002929688 299.999023438 c 0
 125.002929688 319.078125 127.8125 349.790039062 131.2734375 368.552734375 c 1
 48.0390625 416.59765625 l 2
 38.533203125 422.083984375 34.12109375 433.4296875 37.376953125 443.912109375 c 0
 58.998046875 513.525390625 95.912109375 576.416015625 144.19140625 628.650390625 c 0
 148.038085938 632.814453125 155.76171875 636.194335938 161.430664062 636.194335938 c 0
 164.900390625 636.194335938 170.155273438 634.787109375 173.16015625 633.052734375 c 2
 256.33203125 585.015625 l 1
 285.556640625 610.055664062 338.720703125 640.793945312 375.001953125 653.62890625 c 1
 375.001953125 749.689453125 l 2
 375.001953125 760.051757812 383.20703125 770.3046875 393.31640625 772.576171875 c 0
 461.58984375 787.908203125 534.916015625 788.701171875 606.634765625 772.58984375 c 0
 617.357421875 770.181640625 625 760.68359375 625 749.693359375 c 2
 625 653.630859375 l 1
 661.282226562 640.796875 714.446289062 610.05859375 743.669921875 585.017578125 c 1
 826.841796875 633.0546875 l 2
 829.846679688 634.7890625 835.1015625 636.196289062 838.571289062 636.196289062 c 0
 844.240234375 636.196289062 851.963867188 632.81640625 855.810546875 628.65234375 c 0
 904.087890625 576.41796875 941.00390625 513.52734375 962.625 443.9140625 c 0
 965.880859375 433.43359375 961.46875 422.087890625 951.962890625 416.599609375 c 2
 868.7265625 368.5546875 l 1
 872.1875 349.791992188 874.997070312 319.079101562 874.997070312 300 c 0
 874.997070312 280.920898438 872.1875 250.208007812 868.7265625 231.4453125 c 1
656.25 300 m 0
 656.25 386.15625 586.15625 456.25 500 456.25 c 0
 413.84375 456.25 343.75 386.15625 343.75 300 c 0
 343.75 213.84375 413.84375 143.75 500 143.75 c 0
 586.15625 143.75 656.25 213.84375 656.25 300 c 0
EndSplineSet
Validated: 37
EndChar

StartChar: seven
Encoding: 55 55 7
Width: 1000
VWidth: 0
HStem: 258.333 83.334<326.25 833.333> 613.333 20G<480 520.142>
LayerCount: 2
Fore
SplineSet
833.333007812 341.666992188 m 1
 833.333007812 258.333007812 l 1
 326.25 258.333007812 l 1
 558.75 25.4169921875 l 1
 500 -33.3330078125 l 1
 166.666992188 300 l 1
 500 633.333007812 l 1
 559.166992188 574.583007812 l 1
 326.25 341.666992188 l 1
 833.333007812 341.666992188 l 1
EndSplineSet
Validated: 1
EndChar

StartChar: eight
Encoding: 56 56 8
Width: 1000
VWidth: 0
HStem: -116.667 208.334<467.957 532.043> 341.667 83.333<458.333 541.667> 508.333 208.334<467.957 532.043>
VStem: 83.333 375<166.409 332.043> 541.667 375<166.409 332.043>
LayerCount: 2
Fore
SplineSet
500 716.666992188 m 0
 730 716.666992188 916.666992188 530 916.666992188 300 c 0
 916.666992188 70 730 -116.666992188 500 -116.666992188 c 0
 270 -116.666992188 83.3330078125 70 83.3330078125 300 c 0
 83.3330078125 530 270 716.666992188 500 716.666992188 c 0
541.666992188 91.6669921875 m 1
 541.666992188 341.666992188 l 1
 458.333007812 341.666992188 l 1
 458.333007812 91.6669921875 l 1
 541.666992188 91.6669921875 l 1
541.666992188 425 m 1
 541.666992188 508.333007812 l 1
 458.333007812 508.333007812 l 1
 458.333007812 425 l 1
 541.666992188 425 l 1
EndSplineSet
Validated: 1
EndChar

StartChar: nine
Encoding: 57 57 9
Width: 1000
VWidth: 0
HStem: -116.667 21G<143.75 325 550 731.25> 58.333 700<374.905 500.095> 133.333 208.334<791.667 916.479>
VStem: 258.333 700<174.905 300.095> 333.333 208.334<591.667 716.479>
LayerCount: 2
Fore
SplineSet
854.166992188 341.666992188 m 2xa8
 911.666992188 341.666992188 958.333007812 295 958.333007812 237.5 c 0
 958.333007812 180 911.666992188 133.333007812 854.166992188 133.333007812 c 2
 791.666992188 133.333007812 l 1xb0
 791.666992188 -33.3330078125 l 2
 791.666992188 -79.1669921875 754.166992188 -116.666992188 708.333007812 -116.666992188 c 2
 550 -116.666992188 l 1
 550 -54.1669921875 l 2
 550 7.9169921875 499.583007812 58.3330078125 437.5 58.3330078125 c 0
 375.416992188 58.3330078125 325 7.9169921875 325 -54.1669921875 c 2
 325 -116.666992188 l 1
 166.666992188 -116.666992188 l 2
 120.833007812 -116.666992188 83.3330078125 -79.1669921875 83.3330078125 -33.3330078125 c 2
 83.3330078125 125 l 1
 145.833007812 125 l 2
 207.916992188 125 258.333007812 175.416992188 258.333007812 237.5 c 0xd0
 258.333007812 299.583007812 207.916992188 350 145.833007812 350 c 2
 83.75 350 l 1
 83.75 508.333007812 l 2
 83.75 554.166992188 120.833007812 591.666992188 166.666992188 591.666992188 c 2
 333.333007812 591.666992188 l 1
 333.333007812 654.166992188 l 2
 333.333007812 711.666992188 380 758.333007812 437.5 758.333007812 c 0xc8
 495 758.333007812 541.666992188 711.666992188 541.666992188 654.166992188 c 2
 541.666992188 591.666992188 l 1
 708.333007812 591.666992188 l 2
 754.166992188 591.666992188 791.666992188 554.166992188 791.666992188 508.333007812 c 2
 791.666992188 341.666992188 l 1
 854.166992188 341.666992188 l 2xa8
EndSplineSet
Validated: 1
EndChar

StartChar: colon
Encoding: 58 58 10
Width: 1000
VWidth: 0
HStem: -33.333 166.666<444.044 555.956> 216.667 166.666<444.044 555.956> 466.667 166.666<444.044 555.956>
VStem: 416.667 166.666<-5.95561 105.956 244.044 355.956 494.044 605.956>
CounterMasks: 1 e0
LayerCount: 2
Fore
SplineSet
500 466.666992188 m 0
 454.166992188 466.666992188 416.666992188 504.166992188 416.666992188 550 c 0
 416.666992188 595.833007812 454.166992188 633.333007812 500 633.333007812 c 0
 545.833007812 633.333007812 583.333007812 595.833007812 583.333007812 550 c 0
 583.333007812 504.166992188 545.833007812 466.666992188 500 466.666992188 c 0
500 383.333007812 m 0
 545.833007812 383.333007812 583.333007812 345.833007812 583.333007812 300 c 0
 583.333007812 254.166992188 545.833007812 216.666992188 500 216.666992188 c 0
 454.166992188 216.666992188 416.666992188 254.166992188 416.666992188 300 c 0
 416.666992188 345.833007812 454.166992188 383.333007812 500 383.333007812 c 0
500 133.333007812 m 0
 545.833007812 133.333007812 583.333007812 95.8330078125 583.333007812 50 c 0
 583.333007812 4.1669921875 545.833007812 -33.3330078125 500 -33.3330078125 c 0
 454.166992188 -33.3330078125 416.666992188 4.1669921875 416.666992188 50 c 0
 416.666992188 95.8330078125 454.166992188 133.333007812 500 133.333007812 c 0
EndSplineSet
Validated: 1
EndChar

StartChar: semicolon
Encoding: 59 59 11
Width: 1000
VWidth: 0
HStem: 50 83.333<125 875> 258.333 83.334<125 875> 466.667 83.333<125 875>
CounterMasks: 1 e0
LayerCount: 2
Fore
SplineSet
125 50 m 1
 125 133.333007812 l 1
 875 133.333007812 l 1
 875 50 l 1
 125 50 l 1
125 258.333007812 m 1
 125 341.666992188 l 1
 875 341.666992188 l 1
 875 258.333007812 l 1
 125 258.333007812 l 1
125 550 m 1
 875 550 l 1
 875 466.666992188 l 1
 125 466.666992188 l 1
 125 550 l 1
EndSplineSet
Validated: 1
EndChar

StartChar: less
Encoding: 60 60 12
Width: 1000
VWidth: 0
HStem: -75 125<250 333.333 395.833 479.167 541.667 625> 133.333 125<250 333.333 395.833 479.167 541.667 625> 529.167 50<588.102 745.232> 625 50<566.218 767.116>
VStem: 125 125<50 133.333> 333.333 62.5<50 133.333> 479.167 62.5<50 133.333> 625 83.333<258.333 425>
LayerCount: 2
Fore
SplineSet
841.666992188 554.166992188 m 2
 791.666992188 600 729.166992188 625 666.666992188 625 c 0
 604.166992188 625 541.666992188 600 491.666992188 554.166992188 c 2
 458.333007812 587.5 l 2
 516.666992188 645.833007812 591.666992188 675 666.666992188 675 c 0
 741.666992188 675 816.666992188 645.833007812 875 587.5 c 2
 841.666992188 554.166992188 l 2
804.166992188 520.833007812 m 0
 770.833007812 487.5 l 2
 741.666992188 516.666992188 704.166992188 529.166992188 666.666992188 529.166992188 c 0
 629.166992188 529.166992188 591.666992188 516.666992188 562.5 487.5 c 2
 529.166992188 520.833007812 l 2
 566.666992188 558.333007812 616.666992188 579.166992188 666.666992188 579.166992188 c 0
 716.666992188 579.166992188 766.666992188 558.333007812 804.166992188 520.833007812 c 0
791.666992188 258.333007812 m 2
 837.5 258.333007812 875 220.833007812 875 175 c 2
 875 8.3330078125 l 2
 875 -37.5 837.5 -75 791.666992188 -75 c 2
 208.333007812 -75 l 2
 162.5 -75 125 -37.5 125 8.3330078125 c 2
 125 175 l 2
 125 220.833007812 162.5 258.333007812 208.333007812 258.333007812 c 2
 625 258.333007812 l 1
 625 425 l 1
 708.333007812 425 l 1
 708.333007812 258.333007812 l 1
 791.666992188 258.333007812 l 2
333.333007812 50 m 1
 333.333007812 133.333007812 l 1
 250 133.333007812 l 1
 250 50 l 1
 333.333007812 50 l 1
479.166992188 50 m 1
 479.166992188 133.333007812 l 1
 395.833007812 133.333007812 l 1
 395.833007812 50 l 1
 479.166992188 50 l 1
625 50 m 1
 625 133.333007812 l 1
 541.666992188 133.333007812 l 1
 541.666992188 50 l 1
 625 50 l 1
EndSplineSet
Validated: 1
EndChar

StartChar: equal
Encoding: 61 61 13
Width: 1000
VWidth: 0
HStem: 50 83.333<250 750>
LayerCount: 2
Fore
SplineSet
500 449.583007812 m 1
 308.75 258.333007812 l 1
 250 317.083007812 l 1
 500 567.083007812 l 1
 750 317.083007812 l 1
 691.25 258.333007812 l 1
 500 449.583007812 l 1
250 50 m 1
 250 133.333007812 l 1
 750 133.333007812 l 1
 750 50 l 1
 250 50 l 1
EndSplineSet
Validated: 1
EndChar

StartChar: greater
Encoding: 62 62 14
Width: 1000
VWidth: 0
HStem: -33.333 83.333<401.821 598.951> 550 83.333<401.821 599.388>
VStem: 167.083 82.917<201.802 398.198>
LayerCount: 2
Fore
SplineSet
735.416992188 535.416992188 m 2
 833.333007812 633.333007812 l 1
 833.333007812 341.666992188 l 1
 541.666992188 341.666992188 l 1
 675.833007812 475.833007812 l 2
 630.833007812 521.25 569.166992188 550 500 550 c 0
 362.083007812 550 250 437.916992188 250 300 c 0
 250 162.083007812 362.083007812 50 500 50 c 0
 608.75 50 701.25 119.583007812 735.416992188 216.666992188 c 2
 822.083007812 216.666992188 l 2
 785 72.9169921875 655.416992188 -33.3330078125 500 -33.3330078125 c 0
 315.833007812 -33.3330078125 167.083007812 115.833007812 167.083007812 300 c 0
 167.083007812 484.166992188 315.833007812 633.333007812 500 633.333007812 c 0
 592.083007812 633.333007812 675 595.833007812 735.416992188 535.416992188 c 2
EndSplineSet
Validated: 1
EndChar

StartChar: question
Encoding: 63 63 15
Width: 1000
VWidth: 0
HStem: -137.5 78.125<679.26 758.24 804.26 883.24> 34.375 78.125<679.26 758.24 804.26 883.24> 175 78.125<679.26 758.24 804.26 883.24> 346.875 78.125<679.26 758.24 804.26 883.24> 487.5 78.125<679.26 758.24 804.26 883.24> 659.375 78.125<679.26 758.24 804.26 883.24>
VStem: 765.625 31.25<-47.1978 22.1978 265.302 334.698 577.802 647.198> 890.625 109.375<-51.9903 26.9903 260.51 339.49 573.01 651.99>
LayerCount: 2
Fore
SplineSet
937.5 487.5 m 2
 62.5 487.5 l 2
 27.982421875 487.5 0 515.482421875 0 550 c 2
 0 675 l 2
 0 709.517578125 27.982421875 737.5 62.5 737.5 c 2
 937.5 737.5 l 2
 972.017578125 737.5 1000 709.517578125 1000 675 c 2
 1000 550 l 2
 1000 515.482421875 972.017578125 487.5 937.5 487.5 c 2
843.75 659.375 m 0
 817.861328125 659.375 796.875 638.388671875 796.875 612.5 c 0
 796.875 586.611328125 817.861328125 565.625 843.75 565.625 c 0
 869.638671875 565.625 890.625 586.611328125 890.625 612.5 c 0
 890.625 638.388671875 869.638671875 659.375 843.75 659.375 c 0
718.75 659.375 m 0
 692.861328125 659.375 671.875 638.388671875 671.875 612.5 c 0
 671.875 586.611328125 692.861328125 565.625 718.75 565.625 c 0
 744.638671875 565.625 765.625 586.611328125 765.625 612.5 c 0
 765.625 638.388671875 744.638671875 659.375 718.75 659.375 c 0
937.5 175 m 2
 62.5 175 l 2
 27.982421875 175 0 202.982421875 0 237.5 c 2
 0 362.5 l 2
 0 397.017578125 27.982421875 425 62.5 425 c 2
 937.5 425 l 2
 972.017578125 425 1000 397.017578125 1000 362.5 c 2
 1000 237.5 l 2
 1000 202.982421875 972.017578125 175 937.5 175 c 2
843.75 346.875 m 0
 817.861328125 346.875 796.875 325.888671875 796.875 300 c 0
 796.875 274.111328125 817.861328125 253.125 843.75 253.125 c 0
 869.638671875 253.125 890.625 274.111328125 890.625 300 c 0
 890.625 325.888671875 869.638671875 346.875 843.75 346.875 c 0
718.75 346.875 m 0
 692.861328125 346.875 671.875 325.888671875 671.875 300 c 0
 671.875 274.111328125 692.861328125 253.125 718.75 253.125 c 0
 744.638671875 253.125 765.625 274.111328125 765.625 300 c 0
 765.625 325.888671875 744.638671875 346.875 718.75 346.875 c 0
937.5 -137.5 m 2
 62.5 -137.5 l 2
 27.982421875 -137.5 0 -109.517578125 0 -75 c 2
 0 50 l 2
 0 84.517578125 27.982421875 112.5 62.5 112.5 c 2
 937.5 112.5 l 2
 972.017578125 112.5 1000 84.517578125 1000 50 c 2
 1000 -75 l 2
 1000 -109.517578125 972.017578125 -137.5 937.5 -137.5 c 2
843.75 34.375 m 0
 817.861328125 34.375 796.875 13.388671875 796.875 -12.5 c 0
 796.875 -38.388671875 817.861328125 -59.375 843.75 -59.375 c 0
 869.638671875 -59.375 890.625 -38.388671875 890.625 -12.5 c 0
 890.625 13.388671875 869.638671875 34.375 843.75 34.375 c 0
718.75 34.375 m 0
 692.861328125 34.375 671.875 13.388671875 671.875 -12.5 c 0
 671.875 -38.388671875 692.861328125 -59.375 718.75 -59.375 c 0
 744.638671875 -59.375 765.625 -38.388671875 765.625 -12.5 c 0
 765.625 13.388671875 744.638671875 34.375 718.75 34.375 c 0
EndSplineSet
Validated: 1
EndChar

StartChar: at
Encoding: 64 64 16
Width: 1000
VWidth: 0
HStem: -75 416.667<541.667 875> -75 250<125 458.333> 258.333 416.667<125 458.333> 425 250<541.667 875>
VStem: 125 333.333<-75 175 258.333 675> 541.667 333.333<-75 341.667 425 675>
LayerCount: 2
Fore
SplineSet
125 258.333007812 m 1x2c
 125 675 l 1
 458.333007812 675 l 1
 458.333007812 258.333007812 l 1
 125 258.333007812 l 1x2c
125 -75 m 1x4c
 125 175 l 1
 458.333007812 175 l 1
 458.333007812 -75 l 1
 125 -75 l 1x4c
541.666992188 -75 m 1x8c
 541.666992188 341.666992188 l 1
 875 341.666992188 l 1
 875 -75 l 1
 541.666992188 -75 l 1x8c
541.666992188 675 m 1x1c
 875 675 l 1
 875 425 l 1
 541.666992188 425 l 1
 541.666992188 675 l 1x1c
EndSplineSet
Validated: 1
EndChar

StartChar: A
Encoding: 65 65 17
Width: 1000
VWidth: 0
HStem: 50 83.333<268.904 375 583.333 916.667> 279.167 83.333<583.333 916.667> 508.333 83.334<268.904 500 583.333 916.667>
VStem: 83.333 83.334<234.849 406.817> 583.333 333.334<50 133.333 279.167 362.5 508.333 591.667>
LayerCount: 2
Fore
SplineSet
583.333007812 591.666992188 m 1
 916.666992188 591.666992188 l 1
 916.666992188 508.333007812 l 1
 583.333007812 508.333007812 l 1
 583.333007812 591.666992188 l 1
583.333007812 362.5 m 1
 916.666992188 362.5 l 1
 916.666992188 279.166992188 l 1
 583.333007812 279.166992188 l 1
 583.333007812 362.5 l 1
583.333007812 133.333007812 m 1
 916.666992188 133.333007812 l 1
 916.666992188 50 l 1
 583.333007812 50 l 1
 583.333007812 133.333007812 l 1
83.3330078125 320.833007812 m 0
 83.3330078125 470 205 591.666992188 354.166992188 591.666992188 c 2
 500 591.666992188 l 1
 500 508.333007812 l 1
 354.166992188 508.333007812 l 2
 250.833007812 508.333007812 166.666992188 424.166992188 166.666992188 320.833007812 c 0
 166.666992188 217.5 250.833007812 133.333007812 354.166992188 133.333007812 c 2
 375 133.333007812 l 1
 375 216.666992188 l 1
 500 91.6669921875 l 1
 375 -33.3330078125 l 1
 375 50 l 1
 354.166992188 50 l 2
 205 50 83.3330078125 171.666992188 83.3330078125 320.833007812 c 0
EndSplineSet
Validated: 1
EndChar

StartChar: B
Encoding: 66 66 18
Width: 1000
VWidth: 0
HStem: 613.333 20G<208.333 587.333>
VStem: 208.333 83.334<-75 216.667>
LayerCount: 2
Fore
SplineSet
600 550 m 1
 833.333007812 550 l 1
 833.333007812 133.333007812 l 1
 541.666992188 133.333007812 l 1
 525 216.666992188 l 1
 291.666992188 216.666992188 l 1
 291.666992188 -75 l 1
 208.333007812 -75 l 1
 208.333007812 633.333007812 l 1
 583.333007812 633.333007812 l 1
 600 550 l 1
EndSplineSet
Validated: 1
EndChar

StartChar: C
Encoding: 67 67 19
Width: 1000
VWidth: 0
HStem: -33.333 291.666<291.667 416.667 583.333 708.333> -33.333 125<416.667 583.333> 613.333 20G<439.792 575.833>
VStem: 0 416.667<119.421 258.013> 583.333 416.667<93.9323 257.106>
LayerCount: 2
Fore
SplineSet
806.25 381.666992188 m 0x78
 914.583007812 374.166992188 1000 285 1000 175 c 0
 1000 60 906.666992188 -33.3330078125 791.666992188 -33.3330078125 c 2
 250 -33.3330078125 l 2
 112.083007812 -33.3330078125 0 78.75 0 216.666992188 c 0
 0 345.416992188 97.5 451.666992188 222.916992188 465 c 0
 275 565 379.583007812 633.333007812 500 633.333007812 c 0
 651.666992188 633.333007812 777.916992188 525.416992188 806.25 381.666992188 c 0x78
583.333007812 258.333007812 m 1xb8
 708.333007812 258.333007812 l 1
 500 466.666992188 l 1
 291.666992188 258.333007812 l 1
 416.666992188 258.333007812 l 1xb8
 416.666992188 91.6669921875 l 1
 583.333007812 91.6669921875 l 1x78
 583.333007812 258.333007812 l 1xb8
EndSplineSet
Validated: 1
EndChar

StartChar: D
Encoding: 68 68 20
Width: 1000
VWidth: 0
HStem: -75 83.333<208.333 791.667> 591.667 83.333<208.333 500 583.333 732.917>
VStem: 125 83.333<8.33301 591.667> 791.667 83.333<8.33301 300 383.333 532.917>
LayerCount: 2
Fore
SplineSet
791.666992188 8.3330078125 m 1
 791.666992188 300 l 1
 875 300 l 1
 875 8.3330078125 l 2
 875 -37.5 837.5 -75 791.666992188 -75 c 2
 208.333007812 -75 l 2
 162.083007812 -75 125 -37.5 125 8.3330078125 c 2
 125 591.666992188 l 2
 125 637.5 162.083007812 675 208.333007812 675 c 2
 500 675 l 1
 500 591.666992188 l 1
 208.333007812 591.666992188 l 1
 208.333007812 8.3330078125 l 1
 791.666992188 8.3330078125 l 1
583.333007812 675 m 1
 875 675 l 1
 875 383.333007812 l 1
 791.666992188 383.333007812 l 1
 791.666992188 532.916992188 l 1
 382.083007812 123.333007812 l 1
 323.333007812 182.083007812 l 1
 732.916992188 591.666992188 l 1
 583.333007812 591.666992188 l 1
 583.333007812 675 l 1
EndSplineSet
Validated: 1
EndChar

StartChar: E
Encoding: 69 69 21
Width: 1000
VWidth: 0
LayerCount: 2
Fore
SplineSet
872.4609375 607.421875 m 2
 740.4296875 -15.234375 l 2
 730.46875 -59.1796875 704.4921875 -70.1171875 667.578125 -49.4140625 c 2
 466.40625 98.828125 l 1
 369.3359375 5.46875 l 2
 358.59375 -5.2734375 349.609375 -14.2578125 328.90625 -14.2578125 c 1
 343.359375 190.625 l 1
 716.2109375 527.5390625 l 2
 732.421875 541.9921875 712.6953125 550 691.015625 535.546875 c 2
 230.078125 245.3125 l 1
 31.640625 307.421875 l 2
 -11.5234375 320.8984375 -12.3046875 350.5859375 40.625 371.2890625 c 2
 816.796875 670.3125 l 2
 852.734375 683.7890625 884.1796875 662.3046875 872.4609375 607.421875 c 2
EndSplineSet
Validated: 33
EndChar

StartChar: F
Encoding: 70 70 22
Width: 1000
VWidth: 0
HStem: 258.333 83.334<208.333 458.333 541.667 791.667> 571.667 20G<458.333 541.667>
VStem: 458.333 83.334<8.33301 258.333 341.667 591.667>
LayerCount: 2
Fore
SplineSet
791.666992188 258.333007812 m 1
 541.666992188 258.333007812 l 1
 541.666992188 8.3330078125 l 1
 458.333007812 8.3330078125 l 1
 458.333007812 258.333007812 l 1
 208.333007812 258.333007812 l 1
 208.333007812 341.666992188 l 1
 458.333007812 341.666992188 l 1
 458.333007812 591.666992188 l 1
 541.666992188 591.666992188 l 1
 541.666992188 341.666992188 l 1
 791.666992188 341.666992188 l 1
 791.666992188 258.333007812 l 1
EndSplineSet
Validated: 1
EndChar

StartChar: G
Encoding: 71 71 23
Width: 1000
VWidth: 0
HStem: -116.667 208.334<467.957 532.043> 508.333 208.334<467.957 532.043>
VStem: 83.333 208.334<267.957 332.043> 708.333 208.334<267.957 332.043>
LayerCount: 2
Fore
SplineSet
500 716.666992188 m 0
 730 716.666992188 916.666992188 530 916.666992188 300 c 0
 916.666992188 70 730 -116.666992188 500 -116.666992188 c 0
 270 -116.666992188 83.3330078125 70 83.3330078125 300 c 0
 83.3330078125 530 270 716.666992188 500 716.666992188 c 0
708.333007812 258.333007812 m 1
 708.333007812 341.666992188 l 1
 541.666992188 341.666992188 l 1
 541.666992188 508.333007812 l 1
 458.333007812 508.333007812 l 1
 458.333007812 341.666992188 l 1
 291.666992188 341.666992188 l 1
 291.666992188 258.333007812 l 1
 458.333007812 258.333007812 l 1
 458.333007812 91.6669921875 l 1
 541.666992188 91.6669921875 l 1
 541.666992188 258.333007812 l 1
 708.333007812 258.333007812 l 1
EndSplineSet
Validated: 1
EndChar

StartChar: H
Encoding: 72 72 24
Width: 1000
VWidth: 0
HStem: -75 125<458.333 541.667> 133.333 83.334<458.333 541.667>
LayerCount: 2
Fore
SplineSet
41.6669921875 -75 m 1
 500 716.666992188 l 1
 958.333007812 -75 l 1
 41.6669921875 -75 l 1
541.666992188 50 m 1
 541.666992188 133.333007812 l 1
 458.333007812 133.333007812 l 1
 458.333007812 50 l 1
 541.666992188 50 l 1
541.666992188 216.666992188 m 1
 541.666992188 383.333007812 l 1
 458.333007812 383.333007812 l 1
 458.333007812 216.666992188 l 1
 541.666992188 216.666992188 l 1
EndSplineSet
Validated: 1
EndChar

StartChar: I
Encoding: 73 73 25
Width: 1000
VWidth: 0
HStem: -116.667 83.334<395.092 604.834> 550 83.333<395.166 604.834> 702.5 20G<251.104 291.732 708.137 748.834>
VStem: 125 83.333<153.499 363.167> 458.333 62.5<247.917 466.667> 791.667 83.333<153.499 363.167>
LayerCount: 2
Fore
SplineSet
916.666992188 561.666992188 m 1
 862.916992188 497.916992188 l 1
 671.25 658.75 l 1
 725 722.5 l 1
 916.666992188 561.666992188 l 1
328.333007812 658.75 m 1
 137.083007812 498.333007812 l 1
 83.3330078125 562.083007812 l 1
 275 722.5 l 1
 328.333007812 658.75 l 1
520.833007812 466.666992188 m 1
 520.833007812 247.916992188 l 1
 687.5 149.166992188 l 1
 656.25 97.9169921875 l 1
 458.333007812 216.666992188 l 1
 458.333007812 466.666992188 l 1
 520.833007812 466.666992188 l 1
500 633.333007812 m 0
 707.083007812 633.333007812 875 465.416992188 875 258.333007812 c 0
 875 51.25 707.083007812 -116.666992188 500 -116.666992188 c 0
 292.5 -116.666992188 125 51.25 125 258.333007812 c 0
 125 465.416992188 292.916992188 633.333007812 500 633.333007812 c 0
500 -33.3330078125 m 0
 661.25 -33.3330078125 791.666992188 97.0830078125 791.666992188 258.333007812 c 0
 791.666992188 419.583007812 661.25 550 500 550 c 0
 338.75 550 208.333007812 419.583007812 208.333007812 258.333007812 c 0
 208.333007812 97.0830078125 338.75 -33.3330078125 500 -33.3330078125 c 0
EndSplineSet
Validated: 1
EndChar

StartChar: J
Encoding: 74 74 26
Width: 1000
VWidth: 0
HStem: -6.17188 167.031<611.328 778.359> 49.4531 55.625<539.208 611.328> 188.516 222.969<45.7957 175.188> 272.109 55.4688<209.998 295.667 349.453 407.948 460.859 833.828> 438.984 167.188<527.483 639.693> 494.609 55.9375<425.23 515.932>
VStem: 611.328 167.031<-6.17188 49.4531 105.078 160.859>
LayerCount: 2
Fore
SplineSet
1001.171875 300.078125 m 0x16
 1001.171875 295.234375 998.515625 290.546875 994.140625 288.359375 c 2
 854.921875 204.765625 l 2
 852.734375 203.515625 850.546875 202.578125 847.890625 202.578125 c 0
 845.703125 202.578125 843.046875 203.046875 840.859375 204.296875 c 0
 836.484375 206.953125 833.828125 211.328125 833.828125 216.484375 c 2
 833.828125 272.109375 l 1
 460.859375 272.109375 l 1
 500.390625 210.234375 524.140625 105.078125 569.609375 105.078125 c 2
 611.328125 105.078125 l 1x56
 611.328125 146.953125 l 2
 611.328125 154.765625 617.421875 160.859375 625.234375 160.859375 c 2
 764.453125 160.859375 l 2
 772.265625 160.859375 778.359375 154.765625 778.359375 146.953125 c 2
 778.359375 7.734375 l 2
 778.359375 -0.078125 772.265625 -6.171875 764.453125 -6.171875 c 2
 625.234375 -6.171875 l 2x82
 617.421875 -6.171875 611.328125 -0.078125 611.328125 7.734375 c 2
 611.328125 49.453125 l 1
 569.609375 49.453125 l 2
 451.796875 49.453125 442.890625 272.109375 374.765625 272.109375 c 2
 218.046875 272.109375 l 1x52
 205.390625 224.296875 161.953125 188.515625 110.234375 188.515625 c 0
 48.828125 188.671875 -1.171875 238.671875 -1.171875 300.078125 c 0
 -1.171875 361.484375 48.828125 411.484375 110.234375 411.484375 c 0
 161.953125 411.484375 205.546875 375.859375 218.046875 327.890625 c 1
 279.140625 327.890625 286.640625 313.046875 334.609375 422.265625 c 0
 397.265625 561.484375 425.390625 550.546875 504.765625 550.546875 c 1x26
 516.484375 583.203125 546.953125 606.171875 583.515625 606.171875 c 0
 629.609375 606.171875 667.109375 568.828125 667.109375 522.578125 c 4
 667.109375 476.328125 629.765625 438.984375 583.515625 438.984375 c 4x0a
 546.953125 438.984375 516.484375 462.109375 504.765625 494.609375 c 1
 458.203125 494.609375 l 2
 412.734375 494.609375 388.984375 389.296875 349.453125 327.578125 c 1
 833.984375 327.578125 l 1
 833.984375 383.203125 l 2
 833.984375 388.359375 836.640625 392.734375 841.015625 395.390625 c 0
 845.390625 398.046875 851.015625 397.578125 854.921875 394.921875 c 2
 994.140625 311.328125 l 2
 998.515625 309.609375 1001.171875 304.921875 1001.171875 300.078125 c 0x16
EndSplineSet
Validated: 524321
EndChar
